<svg width="150" height="100" xmlns="http://www.w3.org/2000/svg" xmlns:svg="http://www.w3.org/2000/svg">
 <title>jen</title>
 <g>
  <title>Layer 1</title>
  <path stroke="#ffff56" id="svg_8" d="m11.29412,97.624974l25.065575,-29.592027l0,0c-26.554965,-8.926601 -34.132391,-25.74241 -17.505945,-38.848871c16.626134,-13.106385 52.015524,-18.213916 81.757242,-11.799621c29.741709,6.414259 44.103149,22.25101 33.177631,36.586988c-10.924941,14.335972 -43.560805,22.479368 -75.396987,18.81311l-47.097516,24.840421z" stroke-linecap="null" stroke-linejoin="null" stroke-dasharray="null" stroke-width="0" fill="#65b3c6"/>
  <text stroke="#000000" transform="rotate(-0.2523544132709503 57.69950103760077,44.16395187377877) matrix(1.303011136213854,0,0,1.4708601236343384,-64.61005268898853,-66.90677287618827) " xml:space="preserve" text-anchor="middle" font-family="serif" font-size="24" id="svg_2" y="83.673185" x="93.875469" stroke-linecap="null" stroke-linejoin="null" stroke-dasharray="null" stroke-width="0" fill="#ffffff">JEN</text>
  <path stroke="#000000" id="svg_7" d="m111.957283,8.517623c5.073383,-0.018004 10.561643,1.020233 13.866343,4.358833c2.573611,2.461198 5.281544,5.074 5.873574,8.369717c1.33328,5.821323 1.268603,11.980027 -0.937161,17.659579c-1.278133,2.820408 -4.23412,4.859891 -6.016314,7.467904c-2.354767,2.730893 -3.467983,6.050587 -3.155928,9.360776c-6.220633,0 -12.441258,0 -18.661888,0c-0.020393,-4.950241 -3.846602,-9.020912 -7.256764,-12.867471c-2.380923,-2.263199 -3.921293,-5.004857 -4.464412,-7.936401c-1.049432,-5.254099 -1.287655,-10.876569 1.141569,-15.914768c2.306469,-3.854725 5.132407,-8.084826 10.533891,-9.545737c2.896355,-0.849917 6.021554,-0.993069 9.077086,-0.95243l0.000003,-0.000002zm9.516174,46.87768c-6.264307,0 -12.528611,0 -18.79291,0c1.124146,1.848451 2.549903,3.874983 1.760753,5.973617c1.04484,1.824692 -0.292668,3.641625 1.426715,5.311343c0.63312,2.28838 4.237631,2.466632 6.652044,2.529261c2.609137,0.232717 5.509321,-0.349299 6.504507,-2.533173c2.070062,-1.167887 -0.424938,-2.59047 1.179031,-3.903363c-1.84955,-1.613277 1.375734,-2.456813 0.228477,-4.207999c0.315143,-1.19623 1.475407,-1.754662 1.041384,-3.169689l0,0.000002zm0.04083,0.005149c-6.264302,0 -12.528609,0 -18.792913,0c0.47202,1.795934 2.51352,3.493855 1.737357,5.301348c-0.441703,1.500601 1.396081,2.728948 0.293445,4.313566c0.839968,1.901174 2.521246,4.04836 5.380528,4.042245c2.762071,0.003774 6.511849,0.740506 8.223336,-1.471923c0.647285,-1.333229 2.737494,-2.132616 1.132631,-3.579406c1.989936,-1.19915 -1.334549,-2.974975 1.222864,-3.765241c-1.215983,-1.892649 1.311723,-2.981693 0.802752,-4.84059l0,0l0,0.000002zm0.078631,-0.039717c-6.264307,0 -12.528611,0 -18.792918,0c0.47202,1.795934 2.513515,3.493857 1.737349,5.301352c-0.44169,1.500597 1.396091,2.728943 0.29345,4.313561c1.086345,1.384286 2.249682,3.64459 4.52623,3.807043c2.498552,0.023721 4.99711,0.047434 7.495664,0.071162c1.711917,-1.474605 4.153999,-3.195842 2.812164,-5.162004c1.893073,-1.065687 -1.485123,-2.79032 1.125307,-3.490528c-1.215985,-1.892649 1.311726,-2.981687 0.802754,-4.840584l0,0l0,-0.000002zm-5.135742,13.245945c-2.654649,0 -5.309303,0 -7.963953,0c0.860331,0.499832 1.38102,1.663896 2.626275,1.410929c1.280276,-0.080419 2.718191,0.120513 3.901834,-0.132384c0.478614,-0.426184 0.95723,-0.852367 1.435841,-1.278545l0.000003,0zm-2.890355,-13.344037c0.918077,-10.855443 1.85538,-15.45747 5.312114,-22.026712c3.456734,-6.569242 0.743149,-4.377461 -6.980516,-5.088024c-7.723665,-0.71056 -3.466408,2.048489 -3.469551,7.120277c-0.003142,5.07179 -0.450098,7.614274 -0.952119,12.015351c0.49614,4.261752 -0.463465,4.290796 0.718232,7.703842" stroke-linecap="null" stroke-linejoin="null" stroke-dasharray="null" stroke-width="0" fill="#007f7f"/>
 </g>
</svg>